<?xml version="1.0" encoding="utf-8"?>
<!-- Generator: Adobe Illustrator 23.1.1, SVG Export Plug-In . SVG Version: 6.00 Build 0)  -->
<svg version="1.1" id="Layer_1" xmlns="http://www.w3.org/2000/svg" xmlns:xlink="http://www.w3.org/1999/xlink" x="0px" y="0px"
	 viewBox="0 0 105.3 100.8" style="enable-background:new 0 0 105.3 100.8;" xml:space="preserve">
<style type="text/css">
	.st0{fill:none;stroke:#000000;stroke-width:5;stroke-linecap:round;stroke-miterlimit:10;}
	.st1{fill:url(#SVGID_1_);}
	.st2{fill:url(#SVGID_2_);}
	.st3{fill:#E8CE6B;}
	.st4{fill:url(#SVGID_3_);}
	.st5{fill:url(#SVGID_4_);}
</style>
<g>
	<g>
		<linearGradient id="SVGID_1_" gradientUnits="userSpaceOnUse" x1="29.318" y1="58.4639" x2="54.1184" y2="26.1262">
			<stop  offset="0" style="stop-color:#008DAC"/>
			<stop  offset="0.9954" style="stop-color:#5CA6BF"/>
		</linearGradient>
		<path class="st1" d="M25.93,47.82c0.93,0.49,2.08,0.13,2.57-0.81l0-0.01c2.78-5.32,7.54-9.38,12.95-11.19
			c5.41-1.88,11.33-1.52,16.26,0.76c0.15,0.07,0.32,0.14,0.48,0.19c2.19,0.7,4.54-0.51,5.24-2.7c0.7-2.19-0.51-4.54-2.7-5.24
			l-0.08-0.03c-3.57-1.14-7.33-1.6-11.01-1.35c-3.68,0.25-7.27,1.22-10.52,2.78c-6.55,3.1-11.63,8.75-14.09,15.23
			C24.69,46.34,25.06,47.36,25.93,47.82z"/>
		<linearGradient id="SVGID_2_" gradientUnits="userSpaceOnUse" x1="43.3114" y1="69.1956" x2="68.1117" y2="36.8579">
			<stop  offset="0" style="stop-color:#008DAC"/>
			<stop  offset="0.9954" style="stop-color:#5CA6BF"/>
		</linearGradient>
		<path class="st2" d="M80.3,52.22c-2.46-2-6.08-1.63-8.08,0.83c-1.91,2.34-4.17,4.38-6.7,6.01c0.15-0.92,0.23-1.85,0.19-2.79
			c-0.13-4.55-2.16-8.99-5.42-11.99c-3.25-3.03-7.71-4.6-11.99-4.44c-4.31,0.12-8.45,2.06-11.37,5.07
			c-2.84,2.9-4.51,6.89-4.65,10.93c-0.65-0.59-1.28-1.2-1.88-1.86l-0.02-0.02c-1.54-1.68-4.15-1.87-5.93-0.4
			c-1.84,1.52-2.1,4.24-0.58,6.08c3.35,4.05,7.55,7.48,12.35,9.89c4.79,2.42,10.19,3.78,15.62,3.89c5.43,0.12,10.94-1,15.93-3.25
			c5-2.24,9.47-5.56,13.12-9.6l0.05-0.06c0.06-0.07,0.12-0.14,0.18-0.21C83.13,57.84,82.76,54.22,80.3,52.22z M48.99,62.39
			c-3.3,0-5.98-2.68-5.98-5.98c0-3.3,2.68-5.98,5.98-5.98c3.3,0,5.98,2.68,5.98,5.98C54.97,59.71,52.29,62.39,48.99,62.39z"/>
	</g>
	<path class="st3" d="M71.21,47.18c3.22,0,5.84-2.61,5.84-5.84s-2.61-5.84-5.84-5.84c-3.22,0-5.84,2.61-5.84,5.84
		S67.99,47.18,71.21,47.18z"/>
</g>
</svg>
